<?xml version="1.0" encoding="utf-8"?>
<!-- Generator: Adobe Illustrator 25.0.0, SVG Export Plug-In . SVG Version: 6.00 Build 0)  -->
<svg version="1.1" id="Layer_1" xmlns="http://www.w3.org/2000/svg" xmlns:xlink="http://www.w3.org/1999/xlink" x="0px" y="0px"
	 viewBox="0 0 317.2 82.5" style="enable-background:new 0 0 317.2 82.5;" xml:space="preserve">
<style type="text/css">
	.st0{fill:#5300D6;}
</style>
<path class="st0" d="M90.2,1.7v48c0,1.3-0.7,2.4-1.8,3L29.7,82.3c-1.1,0.5-2.4-0.2-2.4-1.4v-14c0-1.1,0.4-2.1,1.1-2.9l11.6-12.3H1.7
	C0.8,51.7,0,50.9,0,50V1.6c0-1.5,1.8-2.2,2.8-1.1L45.3,46L87.4,0.6C88.4-0.5,90.2,0.2,90.2,1.7z"/>
<g>
	<g>
		<path d="M104.4,29.2c-0.9-0.5-1.6-1.3-2.1-2.2s-0.7-2.1-0.7-3.3V19c0-1.3,0.2-2.4,0.7-3.3s1.2-1.7,2.1-2.2s1.9-0.8,3.1-0.8
			c1,0,1.9,0.2,2.7,0.6s1.5,1,2.1,1.8s0.9,1.7,1.1,2.7H111c-0.1-0.5-0.4-1-0.7-1.4c-0.3-0.4-0.8-0.7-1.2-1s-1-0.3-1.5-0.3
			c-0.7,0-1.3,0.2-1.8,0.5s-0.9,0.8-1.2,1.4s-0.4,1.3-0.4,2.1v4.7c0,0.8,0.1,1.5,0.4,2.1s0.7,1.1,1.2,1.4s1.1,0.5,1.8,0.5
			c0.5,0,1-0.1,1.5-0.3s0.9-0.5,1.2-0.9s0.6-0.9,0.7-1.5h2.4c-0.2,1-0.6,1.9-1.1,2.7s-1.2,1.4-2.1,1.8s-1.7,0.6-2.7,0.6
			C106.4,30,105.3,29.7,104.4,29.2z"/>
		<path d="M119.3,29.2c-0.9-0.5-1.6-1.3-2.1-2.2s-0.7-2-0.7-3.3v-4.8c0-1.2,0.2-2.3,0.7-3.3c0.5-0.9,1.2-1.7,2.1-2.2s2-0.8,3.1-0.8
			s2.2,0.3,3.1,0.8s1.6,1.3,2.1,2.2c0.5,0.9,0.7,2,0.7,3.3v4.8c0,1.2-0.2,2.3-0.7,3.3s-1.2,1.7-2.1,2.2s-2,0.8-3.1,0.8
			S120.2,29.7,119.3,29.2z M124.3,27.2c0.5-0.3,0.9-0.8,1.2-1.3s0.4-1.3,0.4-2v-5c0-0.8-0.1-1.4-0.4-2s-0.7-1-1.2-1.3
			s-1.2-0.5-1.9-0.5s-1.3,0.2-1.9,0.5s-0.9,0.8-1.2,1.3s-0.4,1.3-0.4,2v5c0,0.8,0.1,1.4,0.4,2s0.7,1,1.2,1.3s1.2,0.5,1.9,0.5
			S123.8,27.5,124.3,27.2z"/>
		<path d="M132.3,12.8h2.4v17h-2.4V12.8z M133.7,27.6h4.6c1.2,0,2.1-0.2,2.6-0.7s0.8-1.1,0.8-1.9v0c0-0.6-0.1-1.1-0.3-1.5
			s-0.5-0.7-0.9-1s-1-0.3-1.7-0.3h-5.2V20h5.2c0.9,0,1.5-0.2,2-0.6s0.7-1,0.7-1.8c0-0.9-0.2-1.5-0.8-1.9c-0.5-0.4-1.2-0.6-2.2-0.6
			h-4.9v-2.2h5.3c1.1,0,2,0.2,2.8,0.6s1.3,0.9,1.7,1.6s0.6,1.5,0.6,2.5c0,0.6-0.1,1.1-0.3,1.6s-0.6,0.9-1,1.3s-1,0.6-1.7,0.7
			c0.7,0.1,1.3,0.3,1.8,0.7s0.9,0.9,1.1,1.4s0.4,1.2,0.4,1.9v0c0,0.9-0.2,1.7-0.6,2.4s-1,1.2-1.7,1.6s-1.6,0.6-2.6,0.6h-5.5V27.6z"
			/>
		<path d="M147.8,12.8h2.4v17h-2.4V12.8z M149,12.8h9.8v2.3H149V12.8z M149,20.2h8.5v2.3H149V20.2z M149,27.6h9.8v2.3H149V27.6z"/>
		<path d="M159.8,12.8h12v2.3h-12V12.8z M164.6,14.2h2.4v15.6h-2.4V14.2z"/>
		<path d="M114.2,41.6h2.2v17h-2.3V45.9l0.1,0.8l-4.2,9.6h-1.7l-4.2-9.4l0.1-1v12.8H102v-17h2.2l5,11.2L114.2,41.6z"/>
		<path d="M123.2,58c-0.9-0.5-1.6-1.3-2.1-2.2s-0.7-2-0.7-3.3v-4.8c0-1.2,0.2-2.3,0.7-3.3s1.2-1.7,2.1-2.2c0.9-0.5,2-0.8,3.1-0.8
			s2.2,0.3,3.1,0.8c0.9,0.5,1.6,1.3,2.1,2.2s0.7,2,0.7,3.3v4.8c0,1.2-0.2,2.3-0.7,3.3s-1.2,1.7-2.1,2.2s-2,0.8-3.1,0.8
			S124.1,58.5,123.2,58z M128.2,56c0.5-0.3,0.9-0.8,1.2-1.3s0.4-1.3,0.4-2v-5c0-0.8-0.1-1.4-0.4-2s-0.7-1-1.2-1.3s-1.2-0.5-1.9-0.5
			s-1.3,0.2-1.9,0.5s-0.9,0.8-1.2,1.3s-0.4,1.3-0.4,2v5c0,0.8,0.1,1.4,0.4,2s0.7,1,1.2,1.3s1.2,0.5,1.9,0.5S127.6,56.3,128.2,56z"/>
		<path d="M135.5,56.4c0.7,0,1.2-0.2,1.7-0.5s0.7-0.8,0.9-1.5s0.3-1.5,0.3-2.6V41.6h2.4v10.1c0,1.6-0.2,3-0.5,4s-0.9,1.8-1.6,2.3
			s-1.7,0.7-2.9,0.7h-0.2V56.4z M139.9,41.6h8.2v2.3h-8.2V41.6z M146.8,41.6h2.4v17h-2.4V41.6z"/>
		<path d="M155.9,58c-0.9-0.5-1.6-1.3-2.1-2.2s-0.7-2-0.7-3.3v-4.8c0-1.2,0.2-2.3,0.7-3.3s1.2-1.7,2.1-2.2c0.9-0.5,2-0.8,3.1-0.8
			s2.2,0.3,3.1,0.8c0.9,0.5,1.6,1.3,2.1,2.2s0.7,2,0.7,3.3v4.8c0,1.2-0.2,2.3-0.7,3.3s-1.2,1.7-2.1,2.2s-2,0.8-3.1,0.8
			S156.8,58.5,155.9,58z M160.9,56c0.5-0.3,0.9-0.8,1.2-1.3s0.4-1.3,0.4-2v-5c0-0.8-0.1-1.4-0.4-2s-0.7-1-1.2-1.3s-1.2-0.5-1.9-0.5
			s-1.3,0.2-1.9,0.5s-0.9,0.8-1.2,1.3s-0.4,1.3-0.4,2v5c0,0.8,0.1,1.4,0.4,2s0.7,1,1.2,1.3s1.2,0.5,1.9,0.5S160.3,56.3,160.9,56z"/>
		<path d="M167.5,56.4h14.8v2.3h-14.8V56.4z M167.5,56.4h2.4v5.8h-2.4V56.4z M167.5,56.4h0.1c1,0,1.7-0.4,2.3-1.2s0.8-1.9,0.8-3.4
			V41.6h2.4V52c0,1.2-0.2,2.3-0.6,3.2s-1,1.6-1.8,2s-1.7,0.7-2.8,0.7h-0.3V56.4z M172.2,41.6h7.7v2.3h-7.7V41.6z M178.6,41.6h2.4v17
			h-2.4V41.6z M180.9,56.4h2.4v5.8h-2.4V56.4z"/>
		<path d="M186.4,41.6h2.4v17h-2.4V41.6z M187.6,56.4h4.9c0.5,0,1-0.1,1.4-0.3c0.4-0.2,0.7-0.5,0.9-1s0.3-0.9,0.3-1.5
			c0-0.6-0.1-1.1-0.3-1.5s-0.5-0.7-0.9-1c-0.4-0.2-0.9-0.3-1.4-0.3h-4.9v-2.3h4.8c1.1,0,2,0.2,2.8,0.6s1.3,1,1.8,1.7
			s0.6,1.7,0.6,2.8c0,1.1-0.2,2-0.6,2.7s-1,1.3-1.8,1.7s-1.7,0.6-2.8,0.6h-4.8V56.4z M202.2,58.6h-2.4v-17h2.4V58.6z"/>
		<path d="M210.5,48.9l4.3-7.3h2.7l-5.6,9.2l-4.6,7.8h-2.7L210.5,48.9z M210.6,51.1l-0.4-0.6l-5.5-9h2.7l4.1,6.9l0.4,0.6l5.8,9.5
			H215L210.6,51.1z"/>
		<path d="M225.1,41.6h2.7l5,12.2l-1.5,1.9L225.1,41.6z M233.7,55.1c-0.3,0.8-0.7,1.5-1,2.1s-0.8,1-1.4,1.2s-1.1,0.4-1.9,0.4h-2
			v-2.4h2c0.4,0,0.7-0.1,1-0.3s0.5-0.4,0.7-0.8s0.4-0.8,0.6-1.3l4.4-12.6h2.6L233.7,55.1z"/>
		<path d="M243,52.7c-0.8-0.4-1.4-1-1.8-1.8s-0.6-1.8-0.6-2.9v-6.3h2.4V48c0,0.9,0.3,1.7,0.8,2.2s1.3,0.8,2.2,0.8
			c1.1,0,2-0.3,2.6-0.8s0.9-1.3,0.9-2.4v-1.3h0.8v1.3c0,1.2-0.2,2.2-0.5,3s-0.9,1.5-1.5,1.9s-1.5,0.7-2.4,0.7
			C244.7,53.3,243.8,53.1,243,52.7z M249.5,41.6h2.4v17h-2.4V41.6z"/>
		<path d="M256.1,41.6h2.4v17h-2.4V41.6z M257.3,41.6h9.8v2.3h-9.8V41.6z M257.3,49h8.5v2.3h-8.5V49z M257.3,56.4h9.8v2.3h-9.8V56.4
			z"/>
		<path d="M270.5,41.6h2.4v17h-2.4V41.6z M272,49.1h9.5v2.3H272V49.1z M280.2,41.6h2.4v17h-2.4V41.6z"/>
		<path d="M286.8,41.6h2.4v17h-2.4V41.6z M288,56.4h4.9c0.5,0,1-0.1,1.4-0.3s0.7-0.5,0.9-1s0.3-0.9,0.3-1.5c0-0.6-0.1-1.1-0.3-1.5
			s-0.5-0.7-0.9-1s-0.9-0.3-1.4-0.3H288v-2.3h4.8c1.1,0,2,0.2,2.8,0.6s1.3,1,1.8,1.7s0.6,1.7,0.6,2.8c0,1.1-0.2,2-0.6,2.7
			s-1,1.3-1.8,1.7s-1.7,0.6-2.8,0.6H288V56.4z M302.6,58.6h-2.4v-17h2.4V58.6z"/>
		<path d="M310.9,48.9l4.3-7.3h2.7l-5.6,9.2l-4.6,7.8h-2.7L310.9,48.9z M311,51.1l-0.4-0.6l-5.5-9h2.7l4.1,6.9l0.4,0.6l5.8,9.5h-2.7
			L311,51.1z"/>
	</g>
</g>
</svg>
