<?xml version="1.0" encoding="utf-8"?>
<!-- Generator: Adobe Illustrator 25.0.0, SVG Export Plug-In . SVG Version: 6.00 Build 0)  -->
<svg version="1.1" id="Layer_1" xmlns="http://www.w3.org/2000/svg" xmlns:xlink="http://www.w3.org/1999/xlink" x="0px" y="0px"
	 viewBox="0 0 317.2 82.5" style="enable-background:new 0 0 317.2 82.5;" xml:space="preserve">
<style type="text/css">
	.st0{fill:#5300D6;}
	.st1{fill:#FFFFFF;}
</style>
<path class="st0" d="M90.2,1.7v48c0,1.3-0.7,2.4-1.8,3L29.7,82.3c-1.1,0.5-2.4-0.2-2.4-1.4v-14c0-1.1,0.4-2.1,1.1-2.9L40,51.7H1.7
	C0.8,51.7,0,50.9,0,50V1.6c0-1.5,1.8-2.2,2.8-1.1L45.3,46L87.4,0.6C88.4-0.5,90.2,0.2,90.2,1.7z"/>
<g>
	<g>
		<path class="st1" d="M104.7,26c-0.9-0.5-1.6-1.3-2.1-2.2s-0.7-2.1-0.7-3.3v-4.7c0-1.3,0.2-2.4,0.7-3.3s1.2-1.7,2.1-2.2
			s1.9-0.8,3.1-0.8c1,0,1.9,0.2,2.7,0.6s1.5,1,2.1,1.8s0.9,1.7,1.1,2.7h-2.4c-0.1-0.5-0.4-1-0.7-1.4s-0.8-0.7-1.2-1s-1-0.3-1.5-0.3
			c-0.7,0-1.3,0.2-1.8,0.5s-0.9,0.8-1.2,1.4s-0.4,1.3-0.4,2.1v4.7c0,0.8,0.1,1.5,0.4,2.1s0.7,1.1,1.2,1.4s1.1,0.5,1.8,0.5
			c0.5,0,1-0.1,1.5-0.3s0.9-0.5,1.2-0.9s0.6-0.9,0.7-1.5h2.4c-0.2,1-0.6,1.9-1.1,2.7s-1.2,1.4-2.1,1.8s-1.7,0.6-2.7,0.6
			C106.6,26.8,105.6,26.5,104.7,26z"/>
		<path class="st1" d="M119.6,26c-0.9-0.5-1.6-1.3-2.1-2.2s-0.7-2-0.7-3.3v-4.8c0-1.2,0.2-2.3,0.7-3.3s1.2-1.7,2.1-2.2
			s2-0.8,3.1-0.8s2.2,0.3,3.1,0.8s1.6,1.3,2.1,2.2s0.7,2,0.7,3.3v4.8c0,1.2-0.2,2.3-0.7,3.3s-1.2,1.7-2.1,2.2s-2,0.8-3.1,0.8
			S120.5,26.5,119.6,26z M124.6,23.9c0.5-0.3,0.9-0.8,1.2-1.3s0.4-1.3,0.4-2v-5c0-0.8-0.1-1.4-0.4-2s-0.7-1-1.2-1.3
			s-1.2-0.5-1.9-0.5s-1.3,0.2-1.9,0.5s-0.9,0.8-1.2,1.3s-0.4,1.3-0.4,2v5c0,0.8,0.1,1.4,0.4,2s0.7,1,1.2,1.3s1.2,0.5,1.9,0.5
			S124,24.2,124.6,23.9z"/>
		<path class="st1" d="M132.5,9.5h2.4v17h-2.4V9.5z M134,24.4h4.6c1.2,0,2.1-0.2,2.6-0.7s0.8-1.1,0.8-1.9v0c0-0.6-0.1-1.1-0.3-1.5
			s-0.5-0.7-0.9-1s-1-0.3-1.7-0.3H134v-2.2h5.2c0.9,0,1.5-0.2,2-0.6s0.7-1,0.7-1.8c0-0.9-0.2-1.5-0.8-1.9s-1.2-0.6-2.2-0.6H134V9.5
			h5.3c1.1,0,2,0.2,2.8,0.6s1.3,0.9,1.7,1.6s0.6,1.5,0.6,2.5c0,0.6-0.1,1.1-0.3,1.6s-0.6,0.9-1,1.3s-1,0.6-1.7,0.7
			c0.7,0.1,1.3,0.3,1.8,0.7s0.9,0.9,1.1,1.4s0.4,1.2,0.4,1.9v0c0,0.9-0.2,1.7-0.6,2.4s-1,1.2-1.7,1.6s-1.6,0.6-2.6,0.6H134V24.4z"/>
		<path class="st1" d="M148,9.5h2.4v17H148V9.5z M149.2,9.5h9.8v2.3h-9.8V9.5z M149.2,17h8.5v2.3h-8.5V17z M149.2,24.3h9.8v2.3h-9.8
			V24.3z"/>
		<path class="st1" d="M160,9.5h12v2.3h-12V9.5z M164.9,10.9h2.4v15.6h-2.4V10.9z"/>
		<path class="st1" d="M114.5,38.3h2.2v17h-2.3V42.6l0.1,0.8l-4.2,9.6h-1.7l-4.2-9.4l0.1-1v12.8h-2.3v-17h2.2l5,11.2L114.5,38.3z"/>
		<path class="st1" d="M123.4,54.8c-0.9-0.5-1.6-1.3-2.1-2.2s-0.7-2-0.7-3.3v-4.8c0-1.2,0.2-2.3,0.7-3.3c0.5-0.9,1.2-1.7,2.1-2.2
			s2-0.8,3.1-0.8s2.2,0.3,3.1,0.8s1.6,1.3,2.1,2.2c0.5,0.9,0.7,2,0.7,3.3v4.8c0,1.2-0.2,2.3-0.7,3.3s-1.2,1.7-2.1,2.2
			s-2,0.8-3.1,0.8S124.3,55.3,123.4,54.8z M128.4,52.7c0.5-0.3,0.9-0.8,1.2-1.3s0.4-1.3,0.4-2v-5c0-0.8-0.1-1.4-0.4-2
			c-0.3-0.6-0.7-1-1.2-1.3s-1.2-0.5-1.9-0.5s-1.3,0.2-1.9,0.5s-0.9,0.8-1.2,1.3c-0.3,0.6-0.4,1.3-0.4,2v5c0,0.8,0.1,1.4,0.4,2
			s0.7,1,1.2,1.3s1.2,0.5,1.9,0.5S127.9,53,128.4,52.7z"/>
		<path class="st1" d="M135.7,53.1c0.7,0,1.2-0.2,1.7-0.5s0.7-0.8,0.9-1.5s0.3-1.5,0.3-2.6V38.3h2.4v10.1c0,1.6-0.2,3-0.5,4
			s-0.9,1.8-1.6,2.3s-1.7,0.7-2.9,0.7h-0.2V53.1z M140.1,38.3h8.2v2.3h-8.2V38.3z M147,38.3h2.4v17H147V38.3z"/>
		<path class="st1" d="M156.1,54.8c-0.9-0.5-1.6-1.3-2.1-2.2s-0.7-2-0.7-3.3v-4.8c0-1.2,0.2-2.3,0.7-3.3c0.5-0.9,1.2-1.7,2.1-2.2
			s2-0.8,3.1-0.8c1.2,0,2.2,0.3,3.1,0.8s1.6,1.3,2.1,2.2c0.5,0.9,0.7,2,0.7,3.3v4.8c0,1.2-0.2,2.3-0.7,3.3s-1.2,1.7-2.1,2.2
			s-2,0.8-3.1,0.8C158.1,55.6,157,55.3,156.1,54.8z M161.1,52.7c0.5-0.3,0.9-0.8,1.2-1.3s0.4-1.3,0.4-2v-5c0-0.8-0.1-1.4-0.4-2
			c-0.3-0.6-0.7-1-1.2-1.3s-1.2-0.5-1.9-0.5s-1.3,0.2-1.9,0.5s-0.9,0.8-1.2,1.3c-0.3,0.6-0.4,1.3-0.4,2v5c0,0.8,0.1,1.4,0.4,2
			s0.7,1,1.2,1.3s1.2,0.5,1.9,0.5S160.6,53,161.1,52.7z"/>
		<path class="st1" d="M167.7,53.1h14.8v2.3h-14.8V53.1z M167.7,53.1h2.4v5.8h-2.4V53.1z M167.7,53.1h0.1c1,0,1.7-0.4,2.3-1.2
			s0.8-1.9,0.8-3.4V38.3h2.4v10.4c0,1.2-0.2,2.3-0.6,3.2s-1,1.6-1.8,2s-1.7,0.7-2.8,0.7h-0.3V53.1z M172.4,38.3h7.7v2.3h-7.7V38.3z
			 M178.9,38.3h2.4v17h-2.4V38.3z M181.2,53.1h2.4v5.8h-2.4V53.1z"/>
		<path class="st1" d="M186.6,38.3h2.4v17h-2.4V38.3z M187.8,53.1h4.9c0.5,0,1-0.1,1.4-0.3s0.7-0.5,0.9-1s0.3-0.9,0.3-1.5
			c0-0.6-0.1-1.1-0.3-1.5s-0.5-0.7-0.9-1s-0.9-0.3-1.4-0.3h-4.9v-2.3h4.8c1.1,0,2,0.2,2.8,0.6s1.3,1,1.8,1.7s0.6,1.7,0.6,2.8
			c0,1.1-0.2,2-0.6,2.7s-1,1.3-1.8,1.7s-1.7,0.6-2.8,0.6h-4.8V53.1z M202.4,55.4H200v-17h2.4V55.4z"/>
		<path class="st1" d="M210.7,45.6l4.3-7.3h2.7l-5.6,9.2l-4.6,7.8h-2.7L210.7,45.6z M210.8,47.9l-0.4-0.6l-5.5-9h2.7l4.1,6.9
			l0.4,0.6l5.8,9.5h-2.7L210.8,47.9z"/>
		<path class="st1" d="M225.3,38.3h2.7l5,12.2l-1.5,1.9L225.3,38.3z M233.9,51.9c-0.3,0.8-0.7,1.5-1,2.1s-0.8,1-1.4,1.2
			s-1.1,0.4-1.9,0.4h-2v-2.4h2c0.4,0,0.7-0.1,1-0.3s0.5-0.4,0.7-0.8s0.4-0.8,0.6-1.3l4.4-12.6h2.6L233.9,51.9z"/>
		<path class="st1" d="M243.3,49.4c-0.8-0.4-1.4-1-1.8-1.8s-0.6-1.8-0.6-2.9v-6.3h2.4v6.4c0,0.9,0.3,1.7,0.8,2.2s1.3,0.8,2.2,0.8
			c1.1,0,2-0.3,2.6-0.8s0.9-1.3,0.9-2.4v-1.3h0.8v1.3c0,1.2-0.2,2.2-0.5,3s-0.9,1.5-1.5,1.9s-1.5,0.7-2.4,0.7
			C245,50.1,244,49.8,243.3,49.4z M249.8,38.3h2.4v17h-2.4V38.3z"/>
		<path class="st1" d="M256.4,38.3h2.4v17h-2.4V38.3z M257.5,38.3h9.8v2.3h-9.8V38.3z M257.5,45.8h8.5v2.3h-8.5V45.8z M257.5,53.1
			h9.8v2.3h-9.8V53.1z"/>
		<path class="st1" d="M270.7,38.3h2.4v17h-2.4V38.3z M272.2,45.9h9.5v2.3h-9.5V45.9z M280.4,38.3h2.4v17h-2.4V38.3z"/>
		<path class="st1" d="M287,38.3h2.4v17H287V38.3z M288.2,53.1h4.9c0.5,0,1-0.1,1.4-0.3s0.7-0.5,0.9-1s0.3-0.9,0.3-1.5
			c0-0.6-0.1-1.1-0.3-1.5s-0.5-0.7-0.9-1s-0.9-0.3-1.4-0.3h-4.9v-2.3h4.8c1.1,0,2,0.2,2.8,0.6s1.3,1,1.8,1.7s0.6,1.7,0.6,2.8
			c0,1.1-0.2,2-0.6,2.7s-1,1.3-1.8,1.7s-1.7,0.6-2.8,0.6h-4.8V53.1z M302.8,55.4h-2.4v-17h2.4V55.4z"/>
		<path class="st1" d="M311.1,45.6l4.3-7.3h2.7l-5.6,9.2l-4.6,7.8h-2.7L311.1,45.6z M311.2,47.9l-0.4-0.6l-5.5-9h2.7l4.1,6.9
			l0.4,0.6l5.8,9.5h-2.7L311.2,47.9z"/>
	</g>
</g>
</svg>
